<?xml version="1.0" standalone="no"?>
<!DOCTYPE svg PUBLIC "-//W3C//DTD SVG 20010904//EN"
 "http://www.w3.org/TR/2001/REC-SVG-20010904/DTD/svg10.dtd">
<svg version="1.0" xmlns="http://www.w3.org/2000/svg"
 width="320.000000pt" height="157.000000pt" viewBox="0 0 320.000000 157.000000"
 preserveAspectRatio="xMidYMid meet">

<g transform="translate(0.000000,157.000000) scale(0.100000,-0.100000)"
fill="#000000" stroke="none">
<path d="M0 785 l0 -785 591 0 c558 0 590 1 585 18 -13 43 -37 161 -41 197 -4
37 -4 38 5 10 5 -16 14 -49 20 -72 8 -31 15 -41 25 -37 8 4 15 1 15 -5 0 -6
-7 -11 -16 -11 -10 0 -14 -6 -10 -17 2 -10 7 -33 11 -51 l7 -32 302 0 c222 0
305 3 314 12 9 9 12 9 12 0 0 -9 143 -12 615 -12 574 0 615 1 624 17 10 17 10
17 11 1 0 -15 10 -18 65 -18 l65 0 0 83 c0 51 -5 88 -12 95 -9 9 -9 12 0 12 9
0 12 167 12 690 l0 690 -448 0 -449 0 -23 -25 c-13 -14 -29 -25 -36 -25 -7 0
-25 -19 -41 -42 -15 -23 -37 -43 -48 -44 -10 -2 -26 -12 -35 -22 -14 -18 -62
-43 -150 -79 l-35 -14 47 4 c37 4 44 2 35 -8 -7 -7 -15 -11 -19 -8 -5 2 -8
-41 -8 -96 l0 -101 -30 0 c-28 0 -30 2 -30 40 0 23 -5 40 -11 40 -6 0 -9 -6
-6 -14 3 -8 2 -27 -2 -43 -4 -15 -4 -42 1 -60 7 -29 12 -32 51 -35 30 -2 48 2
64 16 21 18 22 18 37 -12 15 -29 36 -37 123 -48 12 -1 31 -7 41 -13 20 -11 30
4 46 67 3 12 8 31 11 41 5 15 0 20 -17 23 -22 3 -23 7 -26 106 l-3 102 34 0
34 0 7 -92 c8 -109 9 -99 -2 -166 -13 -82 -6 -109 34 -122 31 -11 36 -9 58 17
l24 28 7 -27 c4 -16 17 -30 33 -36 57 -21 96 -32 118 -32 15 0 27 -9 36 -27 9
-20 35 -37 93 -63 44 -19 102 -49 129 -65 27 -15 56 -29 65 -30 9 0 28 -12 42
-25 15 -14 37 -33 50 -43 19 -15 16 -14 -14 2 -50 27 -61 26 -74 -6 -10 -27
-11 -26 -7 9 4 35 1 39 -41 64 -30 17 -53 24 -69 20 -16 -4 -29 0 -40 13 -18
20 -59 32 -115 35 -32 1 -35 -2 -43 -34 -5 -19 -12 -42 -15 -50 -16 -40 -13
-51 19 -65 l33 -14 -30 1 c-16 1 -34 7 -38 13 -5 6 -7 4 -6 -5 4 -42 -2 -60
-20 -60 -10 0 -24 7 -31 15 -9 10 -9 15 -1 15 6 0 11 12 11 28 0 20 -3 23 -9
12 -6 -8 -7 -18 -5 -22 3 -4 -2 -8 -10 -8 -9 0 -16 5 -16 10 0 6 4 10 10 10
17 0 24 51 9 61 -10 6 -8 9 10 9 14 0 21 -5 18 -12 -2 -7 0 -22 5 -33 8 -18 8
-18 4 3 -2 12 0 22 4 22 4 0 7 14 6 30 -1 17 1 30 4 30 8 0 10 70 2 71 -4 0
-15 2 -25 4 -13 2 -16 -1 -12 -15 4 -14 -2 -19 -36 -24 -51 -8 -79 -22 -79
-41 0 -7 10 -16 23 -18 16 -3 14 -5 -8 -4 -16 0 -38 -4 -47 -8 -12 -4 -18 -3
-18 5 0 9 -16 11 -63 6 -34 -4 -74 -8 -89 -8 -16 0 -28 -6 -28 -14 0 -8 8 -11
20 -9 11 2 18 0 16 -4 -9 -13 -59 -6 -64 9 -3 13 -2 13 8 0 9 -12 11 -12 8 -1
-5 17 -35 23 -45 9 -4 -7 -1 -8 8 -3 7 5 -6 -11 -29 -35 -23 -25 -41 -49 -38
-55 2 -6 -7 -12 -21 -13 -14 -1 -22 2 -18 9 4 5 1 17 -7 26 -8 11 -9 14 -1 10
12 -8 39 30 29 40 -3 3 -1 14 4 23 7 13 6 19 -3 23 -19 7 -38 -3 -30 -16 3 -7
2 -9 -2 -4 -5 4 -18 -1 -29 -10 -21 -18 -21 -18 -3 3 9 11 17 23 17 26 0 5
-24 4 -40 -2 -3 -1 -9 -2 -13 -1 -4 1 -3 -7 2 -18 6 -10 9 -20 6 -22 -2 -2 -6
-24 -9 -48 -5 -47 -10 -56 -25 -47 -6 4 -6 18 0 39 10 36 8 127 -2 127 -4 0
-5 9 -2 20 6 22 -4 25 -27 10 -13 -8 -12 -10 3 -10 10 0 16 -4 12 -9 -3 -6
-14 -8 -25 -5 -11 2 -29 6 -40 8 -11 3 -23 0 -26 -6 -4 -6 -2 -8 4 -4 7 4 9
-9 7 -40 -4 -41 -3 -45 12 -32 15 12 15 11 2 -9 -8 -14 -16 -18 -20 -12 -4 8
-9 8 -14 0 -5 -9 -10 -9 -21 0 -11 9 -16 6 -24 -17 -12 -32 -16 -107 -6 -123
4 -6 32 -11 63 -11 44 0 54 3 50 14 -4 10 -1 13 9 9 8 -3 13 -11 11 -17 -2 -6
3 -16 12 -23 14 -10 13 -11 -6 -6 -20 5 -22 2 -16 -30 l5 -35 -53 -4 c-30 -3
-58 -1 -63 4 -6 4 -25 8 -44 8 -26 0 -44 -10 -86 -50 l-54 -51 -30 30 c-27 28
-31 41 -10 41 4 0 8 -6 8 -13 0 -7 9 -18 20 -25 18 -11 26 -7 80 46 33 32 60
66 60 75 0 20 -40 32 -78 22 -15 -3 -42 -9 -59 -12 -18 -3 -33 -10 -33 -17 0
-6 -6 0 -14 14 -8 15 -10 32 -4 42 10 21 -63 83 -138 117 -52 23 -133 26 -178
6 -16 -7 -17 -6 -7 13 16 29 15 75 -2 66 -9 -6 -9 -4 1 8 10 13 10 18 1 24 -8
5 -9 3 -4 -6 5 -8 4 -11 -3 -7 -6 4 -8 24 -5 50 l6 42 -29 -25 c-24 -21 -26
-21 -10 -3 27 33 14 57 -26 49 -40 -8 -39 -7 -32 -44 5 -25 12 -32 31 -32 13
0 22 -4 18 -10 -3 -5 -12 -7 -20 -3 -12 4 -15 -2 -13 -28 2 -25 -1 -34 -13
-37 -10 -2 -17 3 -16 10 1 41 -4 59 -15 52 -10 -6 -10 -4 0 8 11 13 10 23 -2
52 -13 32 -19 36 -53 37 -21 0 -46 2 -56 4 -9 2 -15 -1 -11 -6 3 -5 15 -9 27
-9 20 -1 20 -2 5 -11 -12 -7 -24 -6 -37 1 -27 14 -31 13 -31 -9 0 -17 -7 -18
-70 -15 -44 2 -72 -1 -76 -8 -4 -6 -3 -8 3 -5 6 4 9 -8 7 -33 -2 -38 4 -46 31
-40 5 1 2 -7 -8 -18 -9 -10 -14 -22 -10 -26 7 -7 11 -21 17 -63 2 -13 9 -30
17 -39 11 -14 11 -18 -3 -28 -9 -7 -19 -28 -23 -48 -6 -32 -4 -36 19 -42 15
-4 36 -2 49 4 20 10 20 10 5 -3 -10 -8 -15 -17 -11 -21 4 -4 1 -4 -8 -1 -12 4
-14 -4 -12 -47 2 -29 4 -61 5 -70 2 -9 -1 -16 -7 -15 -10 2 -11 5 -13 40 -1
10 -6 16 -11 13 -12 -8 -8 13 7 42 16 27 2 30 -16 2 -7 -11 -20 -20 -30 -21
-14 0 -14 -2 3 -9 14 -6 15 -9 4 -9 -8 -1 -20 4 -25 9 -7 7 -17 4 -30 -7 -24
-23 -105 -85 -167 -130 -40 -30 -47 -40 -47 -69 0 -26 4 -34 18 -34 16 -1 16
-1 0 -11 -10 -5 -21 -10 -25 -9 -8 0 -10 100 -2 100 4 0 21 42 39 93 39 107
37 104 52 89 7 -7 8 -12 2 -12 -13 0 -70 -137 -61 -146 3 -3 39 21 80 54 53
42 72 63 65 70 -8 8 -4 9 13 5 22 -6 23 -5 10 11 -8 9 -20 15 -26 12 -7 -2
-18 0 -26 5 -12 7 -11 9 2 9 9 0 23 8 32 18 16 17 14 20 -37 44 -44 22 -60 25
-91 18 -51 -11 -88 5 -81 36 4 16 1 24 -11 27 -10 2 -2 4 17 5 90 1 133 29
110 71 -5 11 -10 26 -9 33 0 7 5 0 11 -16 l11 -29 29 34 c31 35 29 24 -4 -23
-14 -20 -16 -28 -6 -28 27 1 50 28 46 57 -3 28 -3 28 -93 34 l-90 5 89 2 c76
2 87 4 82 18 -3 9 -6 22 -6 30 0 22 -83 18 -131 -7 -23 -11 -44 -18 -47 -15
-3 3 -1 6 4 6 6 0 18 6 29 13 17 13 17 14 -4 12 -24 -2 -43 -23 -34 -39 3 -5
-1 -14 -9 -20 -8 -6 -20 -20 -27 -31 -11 -19 -12 -18 -5 4 5 18 3 23 -8 18 -8
-3 -15 1 -15 9 0 7 4 11 9 7 6 -3 8 5 6 18 -2 17 2 24 13 23 15 -1 17 13 11
63 -1 6 -14 16 -29 21 -25 9 -26 10 -5 11 35 1 30 41 -5 41 -26 0 -26 1 -7 15
10 8 26 14 34 14 10 0 8 -3 -5 -9 -18 -8 -17 -9 7 -9 14 -1 29 5 32 12 3 8 8
7 16 -5 15 -24 27 -23 35 2 4 12 15 20 28 19 22 0 22 0 -1 -10 -17 -6 -22 -14
-17 -28 5 -17 2 -18 -34 -8 -22 6 -43 8 -47 5 -3 -4 -1 -31 6 -62 8 -41 15
-54 26 -49 7 3 12 9 9 13 -3 5 4 6 14 3 14 -3 19 0 18 14 -1 10 -13 21 -27 24
-21 6 -18 7 15 9 22 1 47 2 55 1 12 -1 11 2 -3 13 -17 13 -16 14 7 12 13 0 22
-4 20 -8 -2 -3 5 -4 17 -1 24 7 14 20 -21 26 -16 3 -10 5 18 6 40 1 62 21 23
21 -11 0 -23 5 -27 11 -5 8 8 9 42 5 56 -8 181 -8 207 0 9 3 17 15 17 27 0 19
1 20 13 3 12 -17 16 -17 72 -1 33 9 69 21 81 26 11 6 24 9 30 8 5 -2 26 0 47
5 27 5 41 14 47 32 11 27 28 32 36 9 8 -20 39 -19 71 2 17 11 28 14 30 7 5
-14 49 -6 63 11 8 10 21 10 53 3 37 -8 44 -7 59 12 12 15 23 19 42 14 14 -3
26 -2 27 2 7 78 7 104 -1 99 -6 -4 -10 -20 -10 -36 0 -28 -2 -30 -32 -27 l-33
3 -3 98 c-3 94 -2 98 20 106 35 13 48 3 48 -38 1 -34 2 -35 15 -17 13 17 13
23 -3 49 -9 16 -33 38 -52 48 -44 24 -101 64 -151 108 -22 18 -39 30 -39 26 0
-4 -15 11 -32 33 l-33 41 -607 0 -608 1 0 -785z m1155 520 c50 -24 72 -79 51
-129 -18 -44 -52 -66 -101 -66 -114 0 -151 142 -50 194 38 20 59 20 100 1z
m243 -5 c17 -11 32 -22 32 -25 0 -2 -11 -12 -25 -21 -20 -13 -28 -14 -40 -4
-23 19 -64 4 -71 -26 -5 -19 -1 -31 14 -46 18 -19 24 -20 52 -8 27 11 33 11
48 -4 16 -16 16 -18 -7 -37 -28 -23 -81 -25 -120 -4 -64 33 -65 130 -2 172 42
28 76 29 119 3z m784 -67 c56 -133 54 -123 19 -123 -20 0 -34 7 -41 21 -16 29
-85 24 -84 -7 0 -18 -4 -19 -33 -15 -19 3 -34 10 -34 14 -1 4 16 50 37 102 37
90 40 95 69 95 29 0 32 -5 67 -87z m251 35 l37 -52 0 52 c0 51 1 52 30 52 l30
0 0 -105 c0 -104 0 -105 -24 -105 -17 0 -36 15 -65 51 l-40 50 -3 -48 c-3 -44
-5 -48 -30 -51 l-28 -3 0 105 0 106 28 0 c21 -1 35 -12 65 -52z m-1647 17 c15
-23 15 -27 0 -50 -9 -14 -12 -25 -6 -25 14 0 28 -39 23 -61 -7 -26 -53 -40
-119 -37 l-59 3 -3 98 -3 97 75 0 c70 0 77 -2 92 -25z m104 -50 l0 -75 45 0
c41 0 45 -2 45 -25 0 -24 -2 -25 -75 -25 l-75 0 0 100 0 100 30 0 30 0 0 -75z
m-585 -375 c13 -5 14 -9 5 -9 -8 0 -24 4 -35 9 -13 5 -14 9 -5 9 8 0 24 -4 35
-9z m58 -17 c-7 -2 -19 -2 -25 0 -7 3 -2 5 12 5 14 0 19 -2 13 -5z m44 -38 c0
-8 -4 -12 -8 -9 -4 2 -10 0 -14 -6 -3 -5 3 -10 14 -10 11 0 23 -5 27 -11 4 -8
-1 -9 -17 -4 -44 14 -54 11 -64 -22 -5 -18 -13 -33 -17 -33 -5 0 -2 15 5 33 8
17 12 38 10 45 -3 7 4 12 16 12 11 0 23 5 26 10 9 15 22 12 22 -5z m497 -50
c-4 -8 -11 -12 -16 -9 -6 4 -5 10 3 15 19 12 19 11 13 -6z m-334 -9 c0 -11
-19 -15 -25 -6 -3 5 1 10 9 10 9 0 16 -2 16 -4z m580 0 c0 -2 -8 -10 -17 -17
-16 -13 -17 -12 -4 4 13 16 21 21 21 13z m720 -11 c28 1 41 -11 33 -32 -4 -11
-8 -10 -20 4 -8 10 -12 13 -9 7 3 -6 -1 -20 -9 -30 -12 -16 -14 -16 -9 -2 4
13 1 16 -13 14 -15 -3 -19 1 -17 17 1 12 3 27 3 32 1 6 4 6 9 0 4 -6 18 -10
32 -10z m-936 -57 c12 -10 29 -16 39 -14 20 5 23 -12 3 -20 -15 -6 -99 70 -89
80 4 4 11 -1 17 -11 5 -10 19 -26 30 -35z m-644 -3 c0 -5 -5 -3 -10 5 -5 8
-10 20 -10 25 0 6 5 3 10 -5 5 -8 10 -19 10 -25z m2187 19 c-3 -3 -12 -4 -19
-1 -8 3 -5 6 6 6 11 1 17 -2 13 -5z m-2132 -36 c-20 -11 -39 -17 -41 -15 -3 2
9 10 26 17 16 7 27 16 24 21 -3 5 3 6 12 2 13 -5 9 -10 -21 -25z m1941 20 c4
-7 3 -8 -4 -4 -7 4 -12 3 -12 -3 0 -19 19 -21 29 -4 6 10 11 13 11 7 0 -18
-27 -37 -35 -24 -3 6 -11 7 -17 4 -6 -4 -6 2 1 15 13 24 17 25 27 9z m-1361
-28 c-3 -5 -11 -10 -16 -10 -6 0 -7 5 -4 10 3 6 11 10 16 10 6 0 7 -4 4 -10z
m1274 -27 c6 -13 15 -22 20 -19 5 4 7 -3 4 -14 -3 -11 -12 -20 -20 -20 -9 0
-13 6 -10 15 4 8 2 17 -2 20 -12 7 -20 -52 -9 -63 5 -5 3 -9 -5 -9 -9 0 -13
11 -11 34 1 19 4 37 8 40 3 3 1 13 -4 23 -6 12 -5 17 5 17 7 0 18 -11 24 -24z
m-1929 2 c-14 -8 -29 -14 -35 -14 -5 0 1 6 15 14 14 8 30 14 35 14 6 0 -1 -6
-15 -14z m131 -13 c-15 -28 -14 -31 12 -43 20 -8 19 -9 -6 -4 -37 7 -60 -10
-47 -35 6 -11 6 -21 1 -24 -5 -3 -11 4 -14 15 -4 15 -11 20 -22 16 -13 -5 -14
-3 -5 13 6 11 20 20 31 20 12 0 25 12 36 35 9 19 18 33 21 31 2 -2 -1 -13 -7
-24z m1472 3 c4 -8 3 -16 -1 -19 -4 -3 -9 4 -9 15 -2 23 3 25 10 4z m1197 -16
c0 -14 -16 -11 -29 5 -10 12 -8 13 8 9 12 -3 21 -9 21 -14z m-304 -3 c11 -8
31 -16 44 -19 23 -4 23 -4 -7 -12 -18 -4 -33 -12 -33 -17 0 -18 45 -88 55 -85
6 2 18 18 27 37 13 26 15 36 5 42 -8 5 -6 8 8 9 17 0 18 1 3 7 -15 6 -13 9 9
19 14 7 23 9 19 6 -4 -4 10 -13 31 -20 21 -7 28 -11 16 -9 -12 2 -29 -2 -38
-8 -15 -11 -10 -17 39 -54 30 -23 57 -42 60 -42 2 0 7 8 9 18 3 11 5 7 6 -10
1 -24 -3 -27 -36 -30 -30 -2 -38 -7 -38 -23 0 -30 -13 -45 -38 -44 -20 1 -20
2 3 8 23 6 26 12 22 41 -3 17 -20 11 -18 -6 0 -9 -6 -19 -14 -22 -13 -4 -13
-3 -2 10 9 12 10 18 2 23 -7 4 -18 -2 -26 -13 -14 -20 -69 -38 -57 -19 4 6 0
8 -11 4 -10 -4 -15 -3 -11 3 8 12 2 13 -27 1 -13 -5 -35 -12 -50 -15 -16 -4
-28 -13 -28 -21 0 -19 -43 -20 -59 -1 -9 10 -8 16 4 26 8 7 15 19 15 26 0 8 5
14 10 14 6 0 9 3 8 8 -3 9 41 112 47 112 7 0 -1 -37 -15 -78 -7 -18 -10 -36
-7 -39 4 -3 2 -14 -4 -24 -12 -24 -1 -24 47 -4 25 10 34 20 31 30 -4 8 3 21
16 30 13 9 16 15 8 15 -8 0 -12 3 -8 6 12 12 -24 64 -56 80 -51 26 -60 36 -45
45 20 13 61 10 84 -5z m-2570 -33 c0 -20 6 -39 13 -41 9 -3 9 -7 0 -18 -17
-21 -3 -44 28 -46 18 0 12 -3 -17 -7 -58 -9 -63 -5 -43 25 17 27 14 34 -29 52
-24 10 -29 9 -43 -11 -8 -12 -15 -29 -15 -39 0 -10 -4 -18 -10 -18 -13 0 -13
6 5 40 10 20 12 31 4 36 -8 5 77 59 101 63 3 1 5 -16 6 -36z m751 -3 c7 -26 7
-43 1 -47 -6 -3 -13 -1 -17 5 -3 5 -28 17 -56 26 -46 14 -39 14 36 -1 28 -5
28 -5 19 26 -5 17 -5 31 -1 31 4 0 12 -18 18 -40z m963 -4 c0 -2 -8 -10 -17
-17 -16 -13 -17 -12 -4 4 13 16 21 21 21 13z m-703 -38 c-17 -11 -28 1 -14 16
8 10 14 11 19 3 4 -6 2 -15 -5 -19z m1843 11 c25 -14 -9 -10 -50 7 l-35 14 35
-6 c19 -4 42 -10 50 -15z m121 -12 c-8 -8 -11 -7 -11 4 0 20 13 34 18 19 3 -7
-1 -17 -7 -23z m-2871 8 c0 -2 -10 -9 -22 -15 -22 -11 -22 -10 -4 4 21 17 26
19 26 11z m1867 -40 c-1 -27 -5 -35 -19 -35 -19 0 -25 16 -7 22 5 2 12 12 14
23 5 26 4 25 9 25 2 0 4 -16 3 -35z m-1247 20 c0 -2 -10 -9 -22 -15 -22 -11
-22 -10 -4 4 21 17 26 19 26 11z m2239 -11 c11 -11 -7 -10 -34 3 l-30 14 30
-6 c16 -4 32 -9 34 -11z m-2909 1 c0 -2 -10 -9 -22 -15 -22 -11 -22 -10 -4 4
21 17 26 19 26 11z m1710 -57 c0 -5 -11 -1 -25 8 -14 9 -25 18 -25 20 0 2 11
-2 25 -8 14 -6 25 -15 25 -20z m810 28 c0 -2 -7 -7 -16 -10 -8 -3 -12 -2 -9 4
6 10 25 14 25 6z m-1440 -21 c0 -9 -9 -15 -22 -15 -22 1 -23 1 -4 15 25 19 26
19 26 0z m-997 -2 c-7 -2 -21 -2 -30 0 -10 3 -4 5 12 5 17 0 24 -2 18 -5z m50
0 c-7 -2 -19 -2 -25 0 -7 3 -2 5 12 5 14 0 19 -2 13 -5z m1149 -18 c3 -13 1
-22 -3 -19 -9 5 -13 44 -5 44 2 0 6 -11 8 -25z m-1014 8 c-15 -2 -42 -2 -60 0
-18 2 -6 4 27 4 33 0 48 -2 33 -4z m102 -8 c0 -2 -17 -5 -39 -7 -24 -2 -37 1
-34 7 3 9 73 9 73 0z m236 -21 c-4 -9 -9 -15 -11 -12 -3 3 -3 13 1 22 4 9 9
15 11 12 3 -3 3 -13 -1 -22z m2234 4 c10 -6 7 -7 -10 -2 -14 3 -32 11 -40 16
-10 6 -7 7 10 2 14 -3 32 -11 40 -16z m-1860 2 c0 -5 -4 -10 -9 -10 -6 0 -13
5 -16 10 -3 6 1 10 9 10 9 0 16 -4 16 -10z m1910 -20 c8 -5 11 -10 5 -10 -5 0
-17 5 -25 10 -8 5 -10 10 -5 10 6 0 17 -5 25 -10z m-2172 -37 c-12 -15 -24
-10 -30 15 -5 16 -2 17 18 8 16 -8 20 -14 12 -23z m464 -13 c3 -16 1 -30 -3
-30 -4 0 -9 14 -11 30 -3 17 -1 30 3 30 4 0 9 -13 11 -30z m1053 20 c3 -5 -1
-10 -9 -10 -9 0 -16 5 -16 10 0 6 4 10 9 10 6 0 13 -4 16 -10z m493 -15 c-3
-3 -9 2 -12 12 -6 14 -5 15 5 6 7 -7 10 -15 7 -18z m-40 -20 c-3 -3 -9 2 -12
12 -6 14 -5 15 5 6 7 -7 10 -15 7 -18z m-531 -28 c-7 -20 -17 -37 -23 -37 -7
0 -4 16 9 40 24 49 30 48 14 -3z m383 -17 c6 0 8 -5 5 -10 -4 -6 -20 1 -41 16
-18 14 -31 30 -28 36 3 5 16 -2 29 -17 13 -14 29 -25 35 -25z m-1661 -10 c0
-10 -3 -8 -9 5 -12 27 -12 43 0 25 5 -8 9 -22 9 -30z m-889 -4 c0 -17 -26 -3
-27 14 -2 18 0 18 13 6 8 -8 14 -17 14 -20z m2490 16 c0 -10 -5 -23 -12 -30
-9 -9 -8 -12 7 -12 24 0 17 -5 -17 -14 -19 -4 -28 -2 -28 5 0 7 3 9 7 6 8 -9
34 43 27 54 -3 5 0 9 5 9 6 0 11 -8 11 -18z m222 9 c6 10 7 4 2 -16 -4 -16 -6
-38 -6 -47 1 -22 -21 -23 -38 -2 -11 12 -11 15 1 12 9 -2 15 8 18 32 2 19 6
29 8 21 5 -11 7 -11 15 0z m-1114 -32 c-20 -13 -28 -11 -22 5 3 8 12 12 21 9
12 -5 12 -7 1 -14z m127 11 c3 -5 -1 -10 -9 -10 -9 0 -16 5 -16 10 0 6 4 10 9
10 6 0 13 -4 16 -10z m-391 -25 c-4 -8 -12 -15 -20 -15 -20 0 -17 18 4 23 9 3
18 5 19 6 1 0 0 -6 -3 -14z m221 -6 c-4 -5 -13 -9 -22 -9 -13 0 -13 3 -3 15
13 15 35 11 25 -6z m443 -4 c0 -15 -6 -25 -14 -25 -17 0 -17 5 -2 30 16 25 16
25 16 -5z m822 -1 c0 -2 -9 -4 -20 -4 -11 0 -20 4 -20 9 0 5 9 7 20 4 11 -3
20 -7 20 -9z m-1760 -14 c0 -5 -7 -10 -15 -10 -8 0 -15 5 -15 10 0 6 7 10 15
10 8 0 15 -4 15 -10z m-1266 -61 c-10 -16 -23 -9 -21 10 1 15 4 17 14 9 7 -5
10 -14 7 -19z m443 9 c-3 -8 -6 -5 -6 6 -1 11 2 17 5 13 3 -3 4 -12 1 -19z
m133 -3 c-7 -9 -15 -13 -17 -11 -3 3 -16 1 -30 -5 -16 -6 -22 -6 -18 1 3 6 13
10 21 10 8 0 14 5 14 10 0 6 10 10 21 10 18 0 19 -2 9 -15z m1006 -7 c-12 -20
-22 -23 -31 -8 -9 15 1 26 23 26 16 0 18 -3 8 -18z m1102 -3 c-3 -3 -13 -2
-22 1 -14 5 -15 9 -4 15 13 8 36 -6 26 -16z m-1321 9 c-3 -3 -12 -4 -19 -1 -8
3 -5 6 6 6 11 1 17 -2 13 -5z m1253 -4 c0 -5 -2 -10 -4 -10 -3 0 -8 5 -11 10
-3 6 -1 10 4 10 6 0 11 -4 11 -10z m-832 -29 c-17 -27 -38 -27 -31 0 4 15 8
17 14 8 6 -10 9 -9 15 4 3 10 8 16 11 13 2 -2 -2 -13 -9 -25z m-978 -13 c0 -5
-7 -8 -15 -8 -17 0 -18 2 -9 25 5 13 8 14 15 3 5 -7 9 -16 9 -20z m-200 -9 c0
-5 -7 -9 -15 -9 -9 0 -12 6 -9 15 6 15 24 11 24 -6z m1805 1 c8 -13 -5 -13
-25 0 -13 8 -13 10 2 10 9 0 20 -4 23 -10z m-1490 -10 c-3 -5 -11 -10 -16 -10
-6 0 -7 5 -4 10 3 6 11 10 16 10 6 0 7 -4 4 -10z m-705 -14 c0 -3 -4 -8 -10
-11 -5 -3 -10 -1 -10 4 0 6 5 11 10 11 6 0 10 -2 10 -4z m2645 -6 c3 -5 -1
-10 -10 -10 -9 0 -13 5 -10 10 3 6 8 10 10 10 2 0 7 -4 10 -10z m-1800 -30 c3
-5 -1 -10 -10 -10 -9 0 -13 5 -10 10 3 6 8 10 10 10 2 0 7 -4 10 -10z m-535
-4 c0 -2 -7 -7 -16 -10 -8 -3 -12 -2 -9 4 6 10 25 14 25 6z"/>
<path d="M1072 1248 c-20 -20 -14 -66 9 -79 33 -17 69 3 69 39 0 33 -16 52
-45 52 -12 0 -26 -5 -33 -12z"/>
<path d="M2106 1225 c-9 -23 -8 -25 9 -25 17 0 19 9 6 28 -7 11 -10 10 -15 -3z"/>
<path d="M680 1245 c0 -16 17 -19 44 -9 26 10 18 24 -14 24 -20 0 -30 -5 -30
-15z"/>
<path d="M680 1175 c0 -12 8 -16 33 -13 17 2 32 8 32 13 0 6 -15 11 -32 13
-25 3 -33 -1 -33 -13z"/>
<path d="M1837 715 c3 -8 9 -12 14 -9 12 7 11 11 -5 17 -10 4 -13 1 -9 -8z"/>
<path d="M2705 591 c-3 -5 8 -14 25 -19 18 -7 32 -7 35 -1 4 5 -1 11 -9 14 -9
3 -23 7 -31 10 -8 2 -17 0 -20 -4z"/>
<path d="M2880 495 c-6 -15 -7 -31 -4 -37 4 -6 1 -14 -7 -18 -11 -7 17 -8 106
-1 22 2 17 7 -57 62 l-28 20 -10 -26z"/>
<path d="M2779 448 c-7 -22 -3 -45 7 -41 18 7 25 43 8 43 -8 0 -14 -1 -15 -2z"/>
<path d="M2817 399 c7 -7 15 -10 18 -7 3 3 -2 9 -12 12 -14 6 -15 5 -6 -5z"/>
<path d="M156 564 c-21 -15 -21 -16 12 -33 24 -13 28 -4 14 31 -6 14 -9 15
-26 2z"/>
<path d="M1620 1320 c8 -5 20 -10 25 -10 6 0 3 5 -5 10 -8 5 -19 10 -25 10 -5
0 -3 -5 5 -10z"/>
<path d="M1678 1323 c12 -2 30 -2 40 0 9 3 -1 5 -23 4 -22 0 -30 -2 -17 -4z"/>
<path d="M1783 1315 c-7 -8 -10 -20 -8 -28 3 -7 -3 -21 -14 -32 -17 -15 -23
-16 -37 -5 -13 11 -17 11 -24 1 -6 -11 -8 -11 -12 0 -4 12 -7 12 -21 0 -34
-28 -15 -81 29 -81 17 0 22 5 20 25 0 14 -5 25 -10 25 -6 0 -6 4 0 10 7 7 19
7 35 1 15 -6 18 -10 8 -10 -9 -1 -19 -8 -23 -16 -3 -8 -2 -14 2 -13 12 4 52
-26 52 -38 0 -6 -11 -17 -25 -24 -19 -10 -22 -17 -14 -31 5 -11 19 -19 30 -19
11 0 31 -8 46 -17 24 -16 26 -16 39 2 8 10 14 40 14 66 0 29 5 49 13 52 7 3 5
6 -5 6 -14 1 -18 -7 -18 -39 0 -38 -2 -40 -30 -40 l-30 0 -2 93 c0 50 -1 100
0 110 2 20 1 21 -15 2z"/>
<path d="M1861 1288 c-1 -36 3 -48 13 -48 12 0 13 6 6 28 -5 15 -11 36 -13 47
-3 11 -5 -1 -6 -27z"/>
<path d="M1918 1275 c-2 -19 0 -35 4 -35 4 0 8 16 8 35 0 19 -2 35 -4 35 -2 0
-6 -16 -8 -35z"/>
<path d="M1576 1233 c-4 -9 -2 -21 4 -27 7 -7 10 -2 10 17 0 31 -5 34 -14 10z"/>
<path d="M1562 1096 c12 -39 32 -47 43 -18 6 15 8 15 18 1 18 -23 67 -18 85 9
14 21 13 22 -19 23 -19 1 -51 1 -72 -1 -21 -1 -44 3 -52 10 -11 9 -12 6 -3
-24z"/>
<path d="M2465 900 c11 -5 27 -9 35 -9 9 0 8 4 -5 9 -11 5 -27 9 -35 9 -9 0
-8 -4 5 -9z"/>
<path d="M640 890 c0 -5 17 -10 38 -9 30 0 33 2 17 9 -28 12 -55 12 -55 0z"/>
<path d="M726 890 c7 -7 19 -7 35 -1 23 9 22 10 -10 10 -24 1 -32 -2 -25 -9z"/>
<path d="M648 863 c7 -3 16 -2 19 1 4 3 -2 6 -13 5 -11 0 -14 -3 -6 -6z"/>
<path d="M2568 863 c6 -2 18 -2 25 0 6 3 1 5 -13 5 -14 0 -19 -2 -12 -5z"/>
<path d="M1350 851 c0 -6 4 -13 10 -16 6 -3 7 1 4 9 -7 18 -14 21 -14 7z"/>
<path d="M648 843 c7 -3 16 -2 19 1 4 3 -2 6 -13 5 -11 0 -14 -3 -6 -6z"/>
<path d="M830 840 c20 -13 43 -13 35 0 -3 6 -16 10 -28 10 -18 0 -19 -2 -7
-10z"/>
<path d="M1240 824 c6 -14 8 -30 4 -35 -5 -9 10 -13 31 -9 5 1 2 -7 -8 -18 -9
-10 -14 -22 -10 -25 10 -11 53 -8 53 3 0 6 -4 10 -9 10 -6 0 -8 9 -6 21 5 26
-14 59 -32 52 -7 -3 -13 2 -13 11 0 9 -4 16 -10 16 -6 0 -6 -9 0 -26z"/>
<path d="M1408 838 c5 -5 16 -8 23 -6 8 3 3 7 -10 11 -17 4 -21 3 -13 -5z"/>
<path d="M2052 820 c0 -14 2 -19 5 -12 2 6 2 18 0 25 -3 6 -5 1 -5 -13z"/>
<path d="M2255 829 c-4 -6 -5 -12 -2 -15 2 -3 7 2 10 11 7 17 1 20 -8 4z"/>
<path d="M2120 820 c8 -5 11 -12 7 -16 -3 -4 -13 -1 -21 5 -14 12 -32 0 -19
-13 8 -8 48 -8 56 1 9 8 -12 33 -27 33 -6 0 -4 -4 4 -10z"/>
<path d="M517 813 c-12 -11 -8 -23 8 -23 8 0 15 7 15 15 0 16 -12 20 -23 8z"/>
<path d="M550 810 c0 -5 5 -10 11 -10 5 0 7 5 4 10 -3 6 -8 10 -11 10 -2 0 -4
-4 -4 -10z"/>
<path d="M665 805 c-16 -8 -25 -14 -18 -15 6 0 17 -2 25 -5 7 -3 22 1 33 10
19 14 19 15 1 8 -13 -4 -17 -3 -12 5 8 14 9 14 -29 -3z"/>
<path d="M1423 813 c-19 -7 -16 -27 7 -48 11 -10 18 -20 16 -23 -6 -6 -61 37
-62 49 -1 5 -2 11 -3 14 0 3 -10 1 -21 -5 -12 -7 -18 -16 -13 -23 4 -7 6 -22
4 -34 -1 -13 3 -23 9 -23 6 0 9 -4 5 -9 -3 -5 16 -9 44 -8 37 2 48 6 46 17 -1
8 2 23 7 33 17 33 -8 71 -39 60z"/>
<path d="M1566 808 c3 -5 10 -6 15 -3 13 9 11 12 -6 12 -8 0 -12 -4 -9 -9z"/>
<path d="M1628 812 c16 -11 -58 -35 -81 -27 -16 7 -31 -31 -16 -41 6 -3 5 -12
-3 -22 -12 -15 -11 -16 4 -3 10 7 16 17 13 21 -3 5 4 6 15 3 11 -3 20 -9 20
-14 0 -5 7 -9 16 -9 8 0 13 4 10 9 -3 4 4 8 17 7 19 -1 22 4 22 38 0 26 -5 41
-15 43 -11 4 -12 2 -2 -5z"/>
<path d="M2185 810 c-3 -5 1 -10 10 -10 9 0 13 5 10 10 -3 6 -8 10 -10 10 -2
0 -7 -4 -10 -10z"/>
<path d="M2287 808 l-28 -10 38 -29 c21 -16 42 -29 46 -29 5 0 7 17 5 37 -4
42 -16 48 -61 31z"/>
<path d="M2435 812 c-5 -4 -15 -16 -22 -28 -11 -20 -10 -21 38 -11 40 8 49 13
49 31 0 17 -2 18 -10 6 -9 -13 -11 -13 -20 0 -8 12 -10 10 -11 -10 -1 -24 -1
-24 -7 -3 -4 12 -11 19 -17 15z"/>
<path d="M1888 793 c6 -2 18 -2 25 0 6 3 1 5 -13 5 -14 0 -19 -2 -12 -5z"/>
<path d="M701 779 c-14 -5 -30 -8 -37 -5 -12 5 -12 -27 0 -79 2 -11 5 -25 5
-31 1 -5 8 -19 17 -30 15 -18 15 -18 4 3 -8 18 -8 21 3 18 19 -8 50 19 52 44
1 11 -2 21 -6 21 -4 0 -6 9 -4 20 2 11 -1 22 -6 25 -5 4 -7 11 -4 16 7 11 7
11 -24 -2z"/>
<path d="M2185 780 c3 -5 13 -10 21 -10 18 0 17 -10 -1 -34 -8 -11 -15 -14
-15 -7 0 7 -4 9 -10 6 -25 -15 -8 -27 33 -21 23 3 61 5 85 5 28 1 41 5 37 12
-4 6 -14 8 -22 5 -8 -3 -12 -2 -8 3 8 15 -59 51 -94 51 -19 0 -30 -4 -26 -10z"/>
<path d="M1818 773 c6 -2 18 -2 25 0 6 3 1 5 -13 5 -14 0 -19 -2 -12 -5z"/>
<path d="M2030 773 c0 -5 5 -15 11 -23 9 -13 10 -13 6 2 -3 9 -1 19 6 22 7 2
4 5 -5 5 -10 1 -18 -2 -18 -6z"/>
<path d="M2105 770 c-4 -6 -11 -7 -17 -4 -7 4 -8 2 -4 -4 4 -7 3 -12 -2 -12
-5 0 -9 -6 -9 -13 0 -8 6 -14 13 -14 7 0 10 6 7 14 -4 9 0 11 13 6 14 -5 16
-3 11 12 -6 14 -5 16 6 7 14 -12 27 -6 27 12 0 6 -5 4 -10 -4 -6 -10 -10 -11
-10 -2 0 15 -16 16 -25 2z"/>
<path d="M1740 761 c0 -6 4 -12 8 -15 5 -3 9 1 9 9 0 8 -4 15 -9 15 -4 0 -8
-4 -8 -9z"/>
<path d="M1689 745 c-1 -3 -2 -11 -3 -17 -1 -8 -13 -12 -29 -11 -15 1 -27 -3
-27 -8 0 -6 6 -7 13 -3 6 4 8 3 4 -1 -10 -12 -38 -15 -31 -4 8 14 -6 10 -22
-6 -16 -16 -14 -17 33 -18 12 0 21 -5 20 -11 -1 -6 6 -10 15 -10 10 1 15 -2
12 -7 -3 -5 -1 -9 3 -9 5 0 13 8 20 19 10 16 8 18 -13 15 -29 -3 -29 -1 -7 17
15 12 16 12 8 -1 -4 -8 -4 -12 0 -7 8 7 15 67 8 67 -2 0 -4 -2 -4 -5z"/>
<path d="M2116 731 c-3 -5 1 -11 9 -15 8 -3 15 -1 15 4 0 13 -18 22 -24 11z"/>
<path d="M1556 722 c-2 -4 -1 -14 4 -22 7 -11 9 -9 7 8 -1 24 -3 26 -11 14z"/>
<path d="M1250 696 c0 -17 31 -29 52 -21 29 11 16 35 -19 35 -22 0 -33 -5 -33
-14z"/>
<path d="M2072 687 c7 -14 7 -17 -1 -13 -11 7 -28 -40 -18 -50 5 -5 57 64 57
76 0 3 -11 6 -24 6 -21 0 -23 -3 -14 -19z"/>
<path d="M1369 669 c10 -28 67 -54 75 -34 7 20 -5 27 -22 12 -13 -10 -14 -9
-3 11 12 23 33 30 29 10 -2 -7 3 -12 10 -10 14 2 16 -14 2 -23 -5 -3 -10 -12
-10 -18 1 -17 83 -77 106 -77 11 0 30 -7 42 -16 29 -20 109 -16 104 6 -10 43
-10 54 0 74 6 11 7 18 3 14 -4 -4 -14 0 -22 8 -12 12 -18 12 -31 2 -13 -11
-14 -11 -8 0 5 9 1 15 -14 19 -15 4 -18 8 -9 13 6 4 -3 7 -22 5 -19 -1 -41 2
-49 7 -8 6 23 -26 70 -71 46 -45 81 -81 77 -81 -3 0 -41 31 -83 69 -57 51 -81
67 -97 63 -13 -3 -18 -1 -14 6 4 6 0 9 -10 7 -23 -3 -38 6 -24 14 6 4 -16 8
-49 9 -56 1 -59 1 -51 -19z"/>
<path d="M1205 670 c-3 -5 -1 -10 4 -10 6 0 11 5 11 10 0 6 -2 10 -4 10 -3 0
-8 -4 -11 -10z"/>
<path d="M1736 664 c-5 -14 -4 -15 9 -4 17 14 19 20 6 20 -5 0 -12 -7 -15 -16z"/>
<path d="M733 658 c-24 -32 -22 -46 9 -57 27 -9 29 -9 23 7 -4 9 -8 25 -11 36
-5 26 -9 29 -21 14z"/>
<path d="M628 596 c-37 -22 -37 -23 -15 -34 12 -6 29 -13 37 -15 10 -4 9 -6
-5 -6 -11 -1 -26 -10 -33 -21 -11 -18 -8 -22 37 -45 47 -23 81 -25 81 -3 0 5
7 8 17 6 11 -2 19 7 25 31 5 18 7 36 3 39 -3 3 -27 5 -53 5 l-47 -2 50 12 49
12 -28 13 c-15 7 -32 9 -38 6 -7 -4 -8 -2 -4 4 4 7 3 12 -3 12 -5 0 -15 2 -23
5 -7 2 -30 -6 -50 -19z m132 -50 c0 -8 -71 -48 -76 -43 -3 3 11 15 33 26 42
22 43 23 43 17z"/>
<path d="M524 550 c-51 -20 -34 -55 21 -44 46 10 61 25 39 41 -20 15 -30 15
-60 3z"/>
<path d="M1533 508 c2 -7 14 -13 27 -13 13 0 25 6 28 13 2 8 -7 12 -28 12 -21
0 -30 -4 -27 -12z"/>
<path d="M1713 464 c-14 -14 -23 -27 -21 -29 2 -2 38 -7 81 -10 l77 -7 0 36 0
36 -55 0 c-47 0 -60 -4 -82 -26z"/>
<path d="M778 453 c6 -2 18 -2 25 0 6 3 1 5 -13 5 -14 0 -19 -2 -12 -5z"/>
<path d="M720 440 c8 -5 20 -10 25 -10 6 0 3 5 -5 10 -8 5 -19 10 -25 10 -5 0
-3 -5 5 -10z"/>
<path d="M682 428 c-9 -12 -8 -14 8 -13 11 1 23 5 27 10 5 4 3 5 -4 2 -6 -4
-13 -2 -15 4 -2 7 -8 6 -16 -3z"/>
<path d="M695 390 c3 -5 10 -10 16 -10 5 0 9 5 9 10 0 6 -7 10 -16 10 -8 0
-12 -4 -9 -10z"/>
</g>
</svg>
